# xmcd
#
# Track frame offsets: 
#        150
#        12657
#        33925
#        60182
#        81172
#        97852
#        119707
#        137355
#        161887
#        177257
#        189312
#        199475
#        213725
#        230947
#        243187
#        255925
#        267440
#
# Disc length: 3905 seconds
#
# Revision: 1
# Processed by: cddbd v1.4PL0 Copyright (c) Steve Scherf et al.
# Submitted via: ExactAudioCopy v0.90b4
#
DISCID=ee0f3f11
DTITLE=Various Artist - Ain't nothing but the blues
DYEAR=1900
DGENRE=Blues
TTITLE0=Taj Mahal - Loving In My Baby's Eyes
TTITLE1=Blues Band - Cold Emotions, Frozen Hearts
TTITLE2=Gil Scott-Heron - Blue Collar
TTITLE3=Jeff Healey Band - Cruel Little Number
TTITLE4=The Blues band - Grits Ain't Groceries
TTITLE5=Alexis Korner - Stormy Monday
TTITLE6=Fleetwood Mac - Need Your Love So Bad
TTITLE7=Jimi Hendrix - Bleeding Heart
TTITLE8=Charlie Musselwhite - Christho Redemptor
TTITLE9=Etta James - I'd Rather Go Blind
TTITLE10=John Mayall - I'm Your Witchdoctor
TTITLE11=Eric Clapton and Jimmy Page - Dragging My Tail
TTITLE12=Alexis Korner - Daytime Song
TTITLE13=Jeff Beck and The All Stars - Stealin'
TTITLE14=Johnny Winter - Good Morning Little Schoolgirl
TTITLE15=Eric Clapton - Snake Drive
TTITLE16=George Thorogood and The Destroyers - Madison Blues
EXTD=Emilio Assis
EXTT0=
EXTT1=
EXTT2=
EXTT3=
EXTT4=
EXTT5=
EXTT6=
EXTT7=
EXTT8=
EXTT9=
EXTT10=
EXTT11=
EXTT12=
EXTT13=
EXTT14=
EXTT15=
EXTT16=
PLAYORDER=
